<svg width="19" height="19" viewBox="0 0 19 19" fill="none" xmlns="http://www.w3.org/2000/svg"
>
<path d="M7.34962 14.4434H3.00799C2.77058 14.4434 2.57812 14.6358 2.57812 14.8732C2.57812 15.1106 2.77058 15.3031 3.00799 15.3031H7.34962C7.58703 15.3031 7.77948 15.1106 7.77948 14.8732C7.77948 14.6358 7.58703 14.4434 7.34962 14.4434Z" fill="#777777"/>
<path d="M13.8418 14.4434H9.50018C9.26276 14.4434 9.07031 14.6358 9.07031 14.8732C9.07031 15.1106 9.26276 15.3031 9.50018 15.3031H13.8418C14.0792 15.3031 14.2717 15.1106 14.2717 14.8732C14.2717 14.6358 14.0792 14.4434 13.8418 14.4434Z" fill="#777777"/>
<path d="M13.8406 3.69678H3.00799C2.77058 3.69678 2.57812 3.88923 2.57812 4.12664C2.57812 4.36406 2.77058 4.55651 3.00799 4.55651H13.8406C14.0779 4.55651 14.2704 4.36406 14.2704 4.12664C14.2704 3.88923 14.0779 3.69678 13.8406 3.69678Z" fill="#777777"/>
<path d="M13.8418 5.84619H9.50018C9.26276 5.84619 9.07031 6.03864 9.07031 6.27606C9.07031 6.51347 9.26276 6.70592 9.50018 6.70592H13.8418C14.0792 6.70592 14.2717 6.51347 14.2717 6.27606C14.2717 6.03864 14.0792 5.84619 13.8418 5.84619Z" fill="#777777"/>
<path d="M13.8418 7.99561H9.50018C9.26276 7.99561 9.07031 8.18806 9.07031 8.42547C9.07031 8.66288 9.26276 8.85533 9.50018 8.85533H13.8418C14.0792 8.85533 14.2717 8.66288 14.2717 8.42547C14.2717 8.18806 14.0792 7.99561 13.8418 7.99561Z" fill="#777777"/>
<path d="M13.8418 10.145H9.50018C9.26276 10.145 9.07031 10.3375 9.07031 10.5749C9.07031 10.8123 9.26276 11.0047 9.50018 11.0047H13.8418C14.0792 11.0047 14.2717 10.8123 14.2717 10.5749C14.2717 10.3375 14.0792 10.145 13.8418 10.145Z" fill="#777777"/>
<path d="M13.8418 12.2939H9.50018C9.26276 12.2939 9.07031 12.4864 9.07031 12.7238C9.07031 12.9612 9.26276 13.1537 9.50018 13.1537H13.8418C14.0792 13.1537 14.2717 12.9612 14.2717 12.7238C14.2717 12.4864 14.0792 12.2939 13.8418 12.2939Z" fill="#777777"/>
<path d="M7.34962 12.2939H3.00799C2.77058 12.2939 2.57812 12.4864 2.57812 12.7238C2.57812 12.9612 2.77058 13.1537 3.00799 13.1537H7.34962C7.58703 13.1537 7.77948 12.9612 7.77948 12.7238C7.77948 12.4864 7.58703 12.2939 7.34962 12.2939Z" fill="#777777"/>
<path d="M7.34962 5.84619H3.00799C2.77058 5.84619 2.57812 6.03864 2.57812 6.27606V10.6177C2.57812 10.8551 2.77058 11.0475 3.00799 11.0475H7.34962C7.58703 11.0475 7.77948 10.8551 7.77948 10.6177V6.27606C7.77948 6.03864 7.58703 5.84619 7.34962 5.84619ZM6.91975 10.1878H3.43785V6.70592H6.91975V10.1878Z" fill="#777777"/>
<path d="M18.1403 3.267H16.8507V1.9774C16.8507 1.50335 16.465 1.11768 15.991 1.11768H0.859729C0.385674 1.11768 0 1.50335 0 1.9774V15.7331C0 16.9182 0.964186 17.8824 2.14932 17.8824H16.8507C18.0358 17.8824 19 16.9182 19 15.7331V4.12673C19 3.65267 18.6143 3.267 18.1403 3.267ZM18.1403 15.7331C18.1403 16.4441 17.5618 17.0227 16.8507 17.0227H2.14932C1.43824 17.0227 0.859729 16.4441 0.859729 15.7331V1.9774H15.991V15.0883C15.991 15.6808 16.473 16.1629 17.0656 16.1629C17.303 16.1629 17.4955 15.9705 17.4955 15.7331C17.4955 15.4956 17.303 15.3032 17.0656 15.3032C16.9471 15.3032 16.8507 15.2068 16.8507 15.0883V4.12673H18.1403V15.7331Z" fill="#777777"/>
</svg>
