<svg width="20" height="19" viewBox="0 0 20 19" fill="none"  xmlns="http://www.w3.org/2000/svg">
<g clip-path="url(#clip0_458_20796)">
<path d="M19.8455 16.8853L19.5602 16.6142C19.4458 16.5055 19.2603 16.5055 19.1459 16.6142C19.0315 16.7229 19.0315 16.8991 19.1459 17.0077L19.3898 17.2395L18.1469 18.4202L16.0338 16.4129L17.2768 15.2321L18.2625 16.1686C18.377 16.2772 18.5625 16.2772 18.6769 16.1686C18.7913 16.0599 18.7913 15.8837 18.6769 15.775L17.4845 14.6422C17.4843 14.642 17.4841 14.6418 17.4839 14.6417L16.6553 13.8545C16.6551 13.8542 16.6548 13.8541 16.6546 13.8539L15.9233 13.1591C15.8237 13.0645 15.6913 13.0123 15.5504 13.0123C15.4095 13.0123 15.2771 13.0645 15.1775 13.1591L15.1361 13.1985L14.0877 12.2023C14.837 11.3129 15.3782 10.259 15.6409 9.10746H17.7051C17.867 9.10746 17.9981 8.98288 17.9981 8.82914C17.9981 8.67539 17.867 8.55082 17.7051 8.55082H15.7447C15.7705 8.37381 15.7898 8.19486 15.8024 8.01418H19.1016C19.2634 8.01418 19.3945 7.8896 19.3945 7.73586C19.3945 7.58211 19.2634 7.45754 19.1016 7.45754H15.8197C15.8183 7.27745 15.8104 7.0985 15.7961 6.92086H17.7052C17.867 6.92086 17.9981 6.79628 17.9981 6.64254C17.9981 6.4888 17.867 6.36422 17.7052 6.36422H15.7291C15.5245 5.08473 14.9771 3.88788 14.1157 2.85408C14.0153 2.73359 13.8311 2.71325 13.7041 2.80859C13.5773 2.90399 13.5559 3.07904 13.6562 3.19957C14.6887 4.43862 15.2344 5.93075 15.2344 7.51465C15.2344 11.3513 11.9487 14.4727 7.91016 14.4727C3.87156 14.4727 0.585938 11.3513 0.585938 7.51465C0.585938 3.67798 3.87156 0.556641 7.91016 0.556641C9.73586 0.556641 11.4848 1.19856 12.8347 2.36413C12.9544 2.46759 13.1398 2.45913 13.2486 2.34539C13.3574 2.23165 13.3486 2.0556 13.2288 1.95221C11.7708 0.693314 9.88195 0 7.91016 0C3.54848 0 0 3.37105 0 7.51465C0 11.173 2.76617 14.2285 6.41574 14.8942V16.7719C6.41574 16.9256 6.54688 17.0502 6.70871 17.0502C6.87055 17.0502 7.00168 16.9256 7.00168 16.7719V14.9795C7.18812 14.9998 7.37648 15.014 7.5666 15.0218V18.0807C7.5666 18.2345 7.69773 18.359 7.85957 18.359C8.02141 18.359 8.15254 18.2345 8.15254 18.0807V15.0254C8.34254 15.02 8.53098 15.0085 8.71746 14.9904V16.7719C8.71746 16.9256 8.84859 17.0502 9.01043 17.0502C9.17227 17.0502 9.3034 16.9256 9.3034 16.7719V14.9126C10.6262 14.6883 11.8358 14.1504 12.8446 13.3833L13.8932 14.3793L13.8518 14.4186C13.7521 14.5133 13.6972 14.6391 13.6972 14.7729C13.6972 14.9068 13.7521 15.0326 13.8517 15.1272L14.5832 15.8221C14.5834 15.8223 14.5835 15.8224 14.5837 15.8225L15.4123 16.6097C15.4125 16.6099 15.4127 16.61 15.4129 16.6102L17.7739 18.8532C17.8735 18.9479 18.0059 19 18.1468 19C18.2877 19 18.4201 18.9479 18.5198 18.8533L19.8455 17.5938C19.9452 17.4991 20 17.3733 20 17.2395C20 17.1056 19.9452 16.9798 19.8455 16.8853ZM13.7039 12.6249L14.7217 13.592L14.3074 13.9856L13.2894 13.0187C13.4326 12.8924 13.5709 12.761 13.7039 12.6249ZM15.6195 16.0193L15.2052 15.6257L16.4481 14.4449L16.8624 14.8386L15.6195 16.0193ZM15.5504 13.5921L16.0338 14.0513L14.7909 15.2321L14.3075 14.7729L15.5504 13.5921Z" fill="#777777"/>
<path d="M3.83069 12.6095C5.00409 13.4474 6.41369 13.8992 7.91053 13.916C11.626 13.916 14.6488 11.0444 14.6488 7.51465C14.6488 3.98492 11.626 1.11328 7.91053 1.11328C6.11744 1.11328 4.43092 1.78003 3.16174 2.99068C1.89791 4.19618 1.19139 5.80179 1.17225 7.51168C1.15467 9.08582 1.75674 10.5988 2.86752 11.772C2.97573 11.8863 3.16096 11.8956 3.28127 11.7928C3.40159 11.69 3.41139 11.514 3.30319 11.3998C2.29084 10.3306 1.74213 8.95186 1.75819 7.51762C1.77565 5.95372 2.42155 4.48552 3.5769 3.38352C4.73534 2.27848 6.27436 1.66992 7.91053 1.66992C11.303 1.66992 14.0629 4.29185 14.0629 7.51465C14.0629 10.7374 11.303 13.3594 7.91401 13.3594C6.54608 13.344 5.25584 12.9308 4.18272 12.1645C4.05346 12.0721 3.86971 12.0969 3.77252 12.2198C3.67526 12.3427 3.70131 12.5171 3.83069 12.6095Z" fill="#777777"/>
<path d="M9.02492 2.54199H6.99367C6.74598 2.54199 6.54445 2.73344 6.54445 2.96875V3.95215H4.64992C4.40223 3.95215 4.2007 4.1436 4.2007 4.37891V7.36621H3.80859C3.64676 7.36621 3.51562 7.49079 3.51562 7.64453C3.51562 7.79828 3.64676 7.92285 3.80859 7.92285H12.21C12.3718 7.92285 12.503 7.79828 12.503 7.64453C12.503 7.49079 12.3718 7.36621 12.21 7.36621H11.8179V5.78906C11.8179 5.55375 11.6164 5.3623 11.3687 5.3623H9.47414V2.96875C9.47414 2.73344 9.27262 2.54199 9.02492 2.54199ZM4.78664 4.50879H6.54445V7.36621H4.78664V4.50879ZM7.13039 3.09863H8.8882V7.36621H7.13039V3.09863ZM11.232 5.91895V7.36621H9.47414V5.91895H11.232Z" fill="#777777"/>
<path d="M11.2873 10.2815H9.90809L9.28152 8.75995C9.23723 8.65244 9.12871 8.58286 9.00609 8.58301C8.88453 8.58405 8.77625 8.6563 8.73398 8.76458L7.87773 10.9581L7.2793 9.34668C7.24102 9.24352 7.14266 9.17123 7.02789 9.16195C6.91328 9.15253 6.80336 9.20812 6.74719 9.30356L6.1725 10.2815H4.79688C4.63504 10.2815 4.50391 10.4061 4.50391 10.5598C4.50391 10.7136 4.63504 10.8381 4.79688 10.8381H6.34445C6.45063 10.8381 6.54852 10.7836 6.60027 10.6955L6.94258 10.1131L7.59457 11.8687C7.63562 11.9793 7.74512 12.0535 7.86852 12.0544H7.8709C7.99328 12.0544 8.10293 11.9821 8.14555 11.8729L9.01598 9.64304L9.43523 10.6612C9.47918 10.7679 9.58742 10.8382 9.70805 10.8382H11.2873C11.4492 10.8382 11.5803 10.7136 11.5803 10.5599C11.5803 10.4061 11.4492 10.2815 11.2873 10.2815Z" fill="#777777"/>
</g>
<defs>
<clipPath id="clip0_458_20796">
<rect width="20" height="19" fill="white"/>
</clipPath>
</defs>
</svg>
