<svg width="24" height="24" viewBox="0 0 24 24" fill="none" xmlns="http://www.w3.org/2000/svg">
<g clip-path="url(#clip0_458_20852)">
<path d="M12.75 11.25C13.7142 11.25 14.6567 10.9641 15.4584 10.4284C16.2601 9.89275 16.8849 9.13137 17.2539 8.24058C17.6229 7.34979 17.7194 6.36959 17.5313 5.42394C17.3432 4.47828 16.8789 3.60964 16.1971 2.92786C15.5154 2.24608 14.6467 1.78178 13.7011 1.59367C12.7554 1.40557 11.7752 1.50211 10.8844 1.87109C9.99363 2.24007 9.23226 2.86491 8.69659 3.6666C8.16091 4.46829 7.875 5.41082 7.875 6.375C7.87649 7.66748 8.39058 8.90659 9.3045 9.8205C10.2184 10.7344 11.4575 11.2485 12.75 11.25ZM12.75 2.25C13.5658 2.25 14.3634 2.49193 15.0417 2.94519C15.7201 3.39845 16.2488 4.04269 16.561 4.79643C16.8732 5.55018 16.9549 6.37958 16.7957 7.17975C16.6366 7.97992 16.2437 8.71493 15.6668 9.29182C15.0899 9.86871 14.3549 10.2616 13.5547 10.4207C12.7546 10.5799 11.9252 10.4982 11.1714 10.186C10.4177 9.87379 9.77345 9.34508 9.32019 8.66673C8.86693 7.98838 8.625 7.19085 8.625 6.375C8.62629 5.28138 9.0613 4.23292 9.83461 3.45961C10.6079 2.6863 11.6564 2.25129 12.75 2.25Z" fill="#777777"/>
<path d="M12 7.5C12 7.40054 11.9605 7.30516 11.8902 7.23483C11.8198 7.16451 11.7245 7.125 11.625 7.125C11.5255 7.125 11.4302 7.16451 11.3598 7.23483C11.2895 7.30516 11.25 7.40054 11.25 7.5C11.2512 7.83158 11.3623 8.1534 11.5659 8.41516C11.7694 8.67692 12.0539 8.86386 12.375 8.94675V9.375C12.375 9.47446 12.4145 9.56984 12.4848 9.64017C12.5552 9.71049 12.6505 9.75 12.75 9.75C12.8495 9.75 12.9448 9.71049 13.0152 9.64017C13.0855 9.56984 13.125 9.47446 13.125 9.375V8.94675C13.4466 8.8649 13.7317 8.67823 13.9354 8.41623C14.1391 8.15423 14.2496 7.83185 14.2496 7.5C14.2496 7.16815 14.1391 6.84577 13.9354 6.58377C13.7317 6.32177 13.4466 6.1351 13.125 6.05325V4.60425C13.2386 4.66955 13.3331 4.76359 13.3989 4.87693C13.4647 4.99028 13.4996 5.11893 13.5 5.25C13.5 5.34946 13.5395 5.44484 13.6098 5.51516C13.6802 5.58549 13.7755 5.625 13.875 5.625C13.9745 5.625 14.0698 5.58549 14.1402 5.51516C14.2105 5.44484 14.25 5.34946 14.25 5.25C14.2488 4.91842 14.1377 4.5966 13.9341 4.33484C13.7306 4.07308 13.4461 3.88614 13.125 3.80325V3.375C13.125 3.27554 13.0855 3.18016 13.0152 3.10984C12.9448 3.03951 12.8495 3 12.75 3C12.6505 3 12.5552 3.03951 12.4848 3.10984C12.4145 3.18016 12.375 3.27554 12.375 3.375V3.80325C12.0534 3.8851 11.7683 4.07177 11.5646 4.33377C11.3609 4.59577 11.2504 4.91815 11.2504 5.25C11.2504 5.58185 11.3609 5.90423 11.5646 6.16623C11.7683 6.42823 12.0534 6.6149 12.375 6.69675V8.14575C12.2614 8.08045 12.1669 7.98641 12.1011 7.87307C12.0353 7.75972 12.0004 7.63107 12 7.5ZM13.125 6.85425C13.2389 6.91928 13.3335 7.01326 13.3994 7.12667C13.4652 7.24007 13.4999 7.36887 13.4999 7.5C13.4999 7.63113 13.4652 7.75993 13.3994 7.87333C13.3335 7.98674 13.2389 8.08072 13.125 8.14575V6.85425ZM12 5.25C12.0004 5.11893 12.0353 4.99028 12.1011 4.87693C12.1669 4.76359 12.2614 4.66955 12.375 4.60425V5.89575C12.2614 5.83045 12.1669 5.73641 12.1011 5.62307C12.0353 5.50972 12.0004 5.38107 12 5.25Z" fill="#777777"/>
<path d="M23.0783 16.139C22.8077 15.9339 22.4711 15.8358 22.1327 15.8635C21.7943 15.8912 21.4781 16.0427 21.2445 16.289L20.8961 16.655C20.8257 16.5617 20.7434 16.478 20.6512 16.406C20.3808 16.2009 20.0442 16.1027 19.7059 16.1304C19.3676 16.1581 19.0513 16.3096 18.8179 16.556L17.1 18.3598C16.8318 18.1289 16.4901 18.0013 16.1362 17.9998H12.1238L12.0292 17.9368C11.3543 17.4971 10.5661 17.2631 9.7605 17.2631C8.95495 17.2631 8.16675 17.4971 7.49175 17.9368L7.39725 17.9998H6.375V17.2498C6.375 17.1503 6.33549 17.055 6.26517 16.9846C6.19484 16.9143 6.09946 16.8748 6 16.8748H0.75C0.650544 16.8748 0.555161 16.9143 0.484835 16.9846C0.414509 17.055 0.375 17.1503 0.375 17.2498V23.6248C0.375 23.7243 0.414509 23.8196 0.484835 23.89C0.555161 23.9603 0.650544 23.9998 0.75 23.9998H6C6.09946 23.9998 6.19484 23.9603 6.26517 23.89C6.33549 23.8196 6.375 23.7243 6.375 23.6248V22.8748H7.3875C8.16123 23.3655 9.05876 23.6257 9.975 23.6248H17.6033C18.1369 23.6241 18.6628 23.4972 19.138 23.2545C19.6132 23.0118 20.0243 22.6602 20.3377 22.2283L23.3625 18.0482C23.5722 17.7553 23.6598 17.3924 23.6067 17.0361C23.5537 16.6798 23.3642 16.3581 23.0783 16.139ZM5.625 23.2498H1.125V17.6248H5.625V23.2498ZM17.5391 18.9857L19.3612 17.0705C19.4679 16.9582 19.6123 16.8891 19.7667 16.8765C19.9211 16.8639 20.0748 16.9087 20.1982 17.0023C20.2702 17.0567 20.3288 17.1267 20.3696 17.207L17.8073 19.8999C17.7168 19.9925 17.611 20.0686 17.4945 20.1249C17.5791 19.9479 17.6267 19.7555 17.6344 19.5595C17.6421 19.3635 17.6096 19.168 17.5391 18.9849V18.9857ZM22.7554 17.6087L19.7299 21.7873C19.4863 22.1234 19.1666 22.3972 18.797 22.5862C18.4274 22.7752 18.0184 22.8741 17.6033 22.8748H9.97688C9.16929 22.8754 8.3797 22.6363 7.70813 22.1878C7.64644 22.1468 7.57405 22.1249 7.5 22.1248H6.375V18.7498H7.5105C7.58457 18.7498 7.65699 18.7279 7.71863 18.6868L7.90613 18.5608C8.45741 18.2016 9.10121 18.0104 9.75919 18.0104C10.4172 18.0104 11.061 18.2016 11.6122 18.5608L11.7997 18.6868C11.8613 18.7278 11.9336 18.7497 12.0075 18.7498H16.1325C16.3314 18.7498 16.5222 18.8288 16.6628 18.9695C16.8035 19.1101 16.8825 19.3009 16.8825 19.4998C16.8825 19.6987 16.8035 19.8895 16.6628 20.0301C16.5222 20.1708 16.3314 20.2498 16.1325 20.2498H12.3825C12.283 20.2498 12.1877 20.2893 12.1173 20.3596C12.047 20.43 12.0075 20.5253 12.0075 20.6248C12.0075 20.7243 12.047 20.8196 12.1173 20.89C12.1877 20.9603 12.283 20.9998 12.3825 20.9998H16.9924C17.2464 20.9994 17.4978 20.9475 17.7313 20.8474C17.9648 20.7472 18.1756 20.6008 18.351 20.417L21.7875 16.8047C21.8978 16.6894 22.0478 16.6202 22.2071 16.6112C22.3664 16.6021 22.5232 16.6538 22.6459 16.7558C22.7686 16.8578 22.8481 17.0025 22.8683 17.1608C22.8884 17.3191 22.8478 17.4791 22.7546 17.6087H22.7554Z" fill="#777777"/>
<path d="M11.25 12.5691V13.8752H10.5C10.4259 13.8752 10.3534 13.8972 10.2917 13.9384C10.2301 13.9796 10.182 14.0382 10.1536 14.1067C10.1253 14.1752 10.1178 14.2506 10.1323 14.3233C10.1468 14.3961 10.1825 14.4629 10.2349 14.5153L12.4849 16.7653C12.5552 16.8356 12.6506 16.8751 12.75 16.8751C12.8495 16.8751 12.9448 16.8356 13.0151 16.7653L15.2651 14.5153C15.3176 14.4629 15.3533 14.3961 15.3677 14.3233C15.3822 14.2506 15.3748 14.1752 15.3464 14.1067C15.318 14.0382 15.27 13.9796 15.2083 13.9384C15.1467 13.8972 15.0742 13.8752 15 13.8752H14.25V12.5691C15.7662 12.202 17.0951 11.2918 17.9853 10.0107C18.8754 8.72967 19.2649 7.16669 19.0801 5.61773C18.8953 4.06876 18.1489 2.64132 16.9824 1.60567C15.8158 0.570018 14.31 -0.00195312 12.75 -0.00195312C11.1901 -0.00195312 9.68424 0.570018 8.51767 1.60567C7.3511 2.64132 6.60475 4.06876 6.41992 5.61773C6.23509 7.16669 6.62462 8.72967 7.51476 10.0107C8.4049 11.2918 9.73386 12.202 11.25 12.5691ZM12.75 0.750189C14.1478 0.753409 15.4944 1.27698 16.5273 2.21886C17.5601 3.16075 18.2053 4.45346 18.337 5.84507C18.4688 7.23669 18.0776 8.6275 17.2398 9.74646C16.4021 10.8654 15.1777 11.6324 13.8053 11.8978C13.7195 11.9141 13.642 11.9597 13.5863 12.027C13.5306 12.0942 13.5001 12.1787 13.5 12.2661V14.2502C13.5 14.3496 13.5395 14.445 13.6099 14.5154C13.6802 14.5857 13.7756 14.6252 13.875 14.6252H14.0948L12.75 15.9699L11.4053 14.6252H11.625C11.7245 14.6252 11.8199 14.5857 11.8902 14.5154C11.9605 14.445 12 14.3496 12 14.2502V12.2661C12 12.1787 11.9694 12.0942 11.9137 12.027C11.858 11.9597 11.7806 11.9141 11.6948 11.8978C10.3224 11.6324 9.09797 10.8654 8.26019 9.74646C7.42241 8.6275 7.03128 7.23669 7.16301 5.84507C7.29474 4.45346 7.9399 3.16075 8.97276 2.21886C10.0056 1.27698 11.3522 0.753409 12.75 0.750189Z" fill="#777777"/>
</g>
<defs>
<clipPath id="clip0_458_20852">
<rect width="24" height="24" fill="white"/>
</clipPath>
</defs>
</svg>
