<svg width="20" height="20" viewBox="0 0 20 20" fill="none" xmlns="http://www.w3.org/2000/svg">
<path fill-rule="evenodd" clip-rule="evenodd" d="M4.59448 17.9391L4.82982 18.3549C4.82999 18.3552 4.83015 18.3554 4.83031 18.3557C5.03888 18.7267 4.90658 19.2002 4.53768 19.4086L3.67911 19.8952C3.67879 19.8954 3.67846 19.8956 3.67814 19.8958C3.30711 20.1044 2.83364 19.9721 2.62514 19.603L0.100418 15.1418C-0.110093 14.7704 0.0222121 14.2965 0.391635 14.0878L1.25117 13.6012L1.25146 13.6011C1.62068 13.3925 2.09431 13.5236 2.30458 13.8928L2.30498 13.8935L2.49433 14.2281L4.72675 12.9356C5.40734 12.542 6.10301 12.2864 6.85052 12.5291C7.5728 12.7633 8.75194 13.2683 9.95538 13.4857C9.96961 13.4883 9.98364 13.4918 9.99739 13.4963C10.6144 13.6961 10.9892 14.3202 10.8207 14.9468C10.7987 15.029 10.7705 15.1062 10.7366 15.1781C10.8527 15.1418 10.9667 15.0916 11.0788 15.0262L14.1402 13.2433C15.2554 12.5935 15.9993 12.6667 16.4201 12.9491C16.7845 13.1936 16.9537 13.6108 16.9428 14.0205C16.9318 14.4346 16.7339 14.83 16.4091 15.03L10.8542 18.4502C10.2654 18.8135 9.62047 18.8989 8.95233 18.7207L8.95197 18.7206L5.05146 17.6752L4.59448 17.9391ZM4.26811 18.6719L1.74403 14.2119C1.70892 14.1504 1.63019 14.128 1.56868 14.1627L0.709377 14.6492L0.709095 14.6493C0.647981 14.6838 0.626736 14.7623 0.661526 14.8237L0.661647 14.8239L3.18649 19.2853L3.18661 19.2855C3.22132 19.3469 3.30017 19.3682 3.36185 19.3336L4.21962 18.8474L4.22006 18.8472C4.28146 18.8125 4.30274 18.7336 4.26811 18.6719ZM4.27682 17.3777L4.84462 17.0498C4.91871 17.0071 5.00676 16.9955 5.08936 17.0176L9.11866 18.0975C9.60926 18.2283 10.0831 18.1681 10.5154 17.9013L10.5157 17.9011L16.0709 14.4808C16.2213 14.3882 16.2929 14.1952 16.298 14.0034C16.3041 13.7763 16.2093 13.5357 15.9692 13.4358C15.6534 13.3044 15.1688 13.3905 14.4649 13.8006L11.4036 15.5835C10.9089 15.8718 10.3904 15.9516 9.82537 15.8617C9.82501 15.8616 9.82465 15.8615 9.82429 15.8615L9.44478 15.7997C9.44462 15.7997 8.09855 15.4465 7.3872 15.2553C7.21531 15.2091 7.11324 15.0321 7.15944 14.8602C7.20563 14.6883 7.38269 14.5862 7.55458 14.6324C8.24843 14.8189 8.87388 15.0234 9.54742 15.1626C9.87851 15.199 10.1217 15.0632 10.1978 14.7795L10.1979 14.7793C10.2749 14.4928 10.0951 14.2155 9.81699 14.1161C8.5896 13.8906 7.38829 13.3815 6.65146 13.1426L6.65134 13.1426C6.08447 12.9585 5.56581 13.1954 5.04969 13.4939L2.81203 14.7895L4.27682 17.3777ZM1.43774 14.672C1.63257 14.643 1.81353 14.7776 1.84252 14.9725C1.87037 15.1673 1.73581 15.3494 1.54094 15.3772C1.34611 15.4063 1.16515 15.2705 1.13616 15.0757C1.10831 14.8808 1.24287 14.6999 1.43774 14.672ZM3.37467 4.1785C5.23867 4.1785 6.74934 5.6892 6.74934 7.55321C6.74934 9.41717 5.23867 10.9279 3.37467 10.9279C1.51071 10.9279 0 9.41717 0 7.55321C0 5.6892 1.51071 4.1785 3.37467 4.1785ZM5.6503 9.06141C5.93721 8.62931 6.10434 8.11081 6.10434 7.55321C6.10434 6.04548 4.88239 4.8235 3.37467 4.8235C1.86695 4.8235 0.644998 6.04548 0.644998 7.55321C0.644998 8.11081 0.812133 8.62931 1.09904 9.06141C1.33595 8.47459 1.79305 8.00027 2.36783 7.74102C2.12446 7.48879 1.9743 7.14613 1.9743 6.76994C1.9743 5.99949 2.60422 5.36957 3.37467 5.36957C4.14516 5.36957 4.77508 5.99949 4.77508 6.76994C4.77508 7.14613 4.62492 7.48879 4.38151 7.74102C4.95633 8.00027 5.41343 8.47459 5.6503 9.06141ZM1.60056 9.62788C2.07766 10.0362 2.69734 10.2829 3.37467 10.2829C4.05204 10.2829 4.67168 10.0362 5.14882 9.62788C4.98539 8.79709 4.25295 8.17035 3.37467 8.17035C2.49642 8.17035 1.76399 8.79709 1.60056 9.62788ZM3.37467 7.52535C3.79029 7.52535 4.13008 7.18556 4.13008 6.76994C4.13008 6.35436 3.79029 6.01456 3.37467 6.01456C2.95909 6.01456 2.6193 6.35436 2.6193 6.76994C2.6193 7.18556 2.95909 7.52535 3.37467 7.52535ZM10.8476 0.560302C11.0342 0.616537 11.2146 0.691276 11.3865 0.783632L11.7324 0.62984C11.8543 0.57562 11.997 0.602105 12.0914 0.696477L12.6751 1.2802C12.7694 1.37445 12.796 1.51695 12.742 1.63886C12.742 1.63886 12.5887 1.98486 12.5887 1.98486C12.6812 2.15699 12.756 2.33775 12.8123 2.52501L13.1649 2.66074C13.2895 2.70867 13.3716 2.82832 13.3716 2.96171V3.78739C13.3716 3.92082 13.2895 4.04047 13.1649 4.0884L12.8121 4.22417C12.7557 4.41078 12.6807 4.59122 12.5885 4.76311L12.742 5.10943C12.796 5.23134 12.7694 5.37384 12.6751 5.46809L12.0914 6.05181C11.9972 6.14606 11.8547 6.17263 11.7328 6.11865C11.7328 6.11865 11.3869 5.96546 11.3869 5.96542C11.2151 6.05782 11.0343 6.13264 10.8475 6.18887L10.7117 6.54161C10.6638 6.66613 10.5441 6.74829 10.4107 6.74829H9.58503C9.45164 6.74829 9.33199 6.66613 9.28406 6.54161L9.14833 6.18892C8.96116 6.13252 8.78052 6.05742 8.6085 5.96522L8.26218 6.11865C8.14028 6.17263 7.99777 6.14606 7.90352 6.05181L7.3198 5.46809C7.22543 5.37372 7.19894 5.23097 7.25316 5.10903L7.40687 4.76335C7.31456 4.5917 7.23974 4.41102 7.18314 4.22429L6.83 4.0884C6.70548 4.04047 6.62332 3.92082 6.62332 3.78739V2.96171C6.62332 2.82832 6.70548 2.70867 6.83 2.66074C6.83 2.66074 7.18306 2.52484 7.18302 2.52488C7.23966 2.33775 7.31452 2.15711 7.40691 1.98514L7.25316 1.63926C7.19894 1.51732 7.22543 1.37457 7.3198 1.2802L7.90352 0.696477C7.99789 0.602105 8.14064 0.57562 8.26258 0.62984C8.26258 0.62984 8.60846 0.783632 8.60842 0.783632C8.7804 0.691236 8.96092 0.616457 9.14764 0.560221L9.28418 0.206399C9.33215 0.0820357 9.45172 0 9.58503 0H10.4107C10.5442 0 10.6639 0.0822372 10.7118 0.206843L10.8476 0.560302ZM10.3042 0.944559L10.1892 0.644998H9.80627L9.69049 0.945002C9.65223 1.04413 9.56758 1.11806 9.46422 1.14265C9.22823 1.19873 9.00316 1.29197 8.79632 1.41944C8.7057 1.47527 8.59339 1.48281 8.49611 1.43955L8.20296 1.30918L7.93251 1.57964L8.06288 1.87279C8.10613 1.97007 8.09859 2.08238 8.04276 2.173C7.91513 2.38008 7.82185 2.60543 7.76497 2.84238C7.74022 2.94558 7.66624 3.03 7.56724 3.06813L7.26832 3.18314V3.56595L7.56724 3.681C7.6662 3.7191 7.7401 3.80339 7.76493 3.90651C7.82177 4.14262 7.91493 4.36861 8.04248 4.57485C8.09855 4.66555 8.10617 4.77806 8.06288 4.8755L7.93251 5.16865L8.2032 5.43931L8.49652 5.30938C8.59343 5.26645 8.70525 5.27391 8.79563 5.32925C9.00268 5.45612 9.22786 5.55029 9.46482 5.6064C9.56838 5.63095 9.6532 5.70505 9.69146 5.80438L9.80647 6.10329H10.1893L10.3043 5.80438C10.3425 5.70513 10.4272 5.63107 10.5307 5.60648C10.7665 5.55045 10.9922 5.45733 11.1982 5.32998C11.2887 5.27399 11.4011 5.26629 11.4984 5.30938L11.7917 5.43931L12.0626 5.16841L11.9327 4.8751C11.8898 4.77818 11.8972 4.66636 11.9526 4.57598C12.0795 4.36893 12.1737 4.14367 12.2298 3.9074C12.2544 3.80392 12.3284 3.71922 12.4277 3.681L12.7266 3.56595V3.18314L12.4277 3.06813C12.3284 3.02988 12.2543 2.94506 12.2297 2.8415C12.1737 2.60482 12.0804 2.3798 11.953 2.173C11.8973 2.0825 11.8897 1.97039 11.9327 1.87319L12.0626 1.57988L11.792 1.30918L11.4988 1.43955C11.4015 1.48281 11.2892 1.47527 11.1986 1.41944C10.9918 1.29197 10.7667 1.19873 10.5307 1.14265C10.4272 1.11802 10.3424 1.04393 10.3042 0.944559ZM9.99747 1.61149C10.9714 1.61149 11.761 2.40024 11.761 3.37414C11.761 4.34801 10.9713 5.13765 9.99747 5.13765C9.02356 5.13765 8.23481 4.34805 8.23481 3.37414C8.23481 2.4002 9.02352 1.61149 9.99747 1.61149ZM9.99747 2.25648C9.37992 2.25648 8.87981 2.7566 8.87981 3.37414C8.87981 3.99177 9.37984 4.49265 9.99747 4.49265C10.6151 4.49265 11.116 3.99181 11.116 3.37414C11.116 2.75652 10.6151 2.25648 9.99747 2.25648ZM16.6208 10.9279C14.7624 10.9279 13.2466 9.41209 13.2466 7.55373C13.2466 5.69537 14.7624 4.17959 16.6208 4.17959C18.4791 4.17959 19.9949 5.69537 19.9949 7.55373C19.9949 9.41209 18.4791 10.9279 16.6208 10.9279ZM16.6208 10.2829C18.1239 10.2829 19.3499 9.05686 19.3499 7.55373C19.3499 6.0506 18.1239 4.82458 16.6208 4.82458C15.1177 4.82458 13.8916 6.0506 13.8916 7.55373C13.8916 9.05686 15.1177 10.2829 16.6208 10.2829ZM16.2983 5.7716V5.62325C16.2983 5.44527 16.4428 5.30075 16.6208 5.30075C16.7988 5.30075 16.9433 5.44527 16.9433 5.62325V5.76793C17.308 5.85202 17.6433 6.08817 17.8171 6.50242C17.886 6.66658 17.8087 6.85572 17.6446 6.92462C17.4805 6.99347 17.2913 6.91615 17.2224 6.752C17.0679 6.38383 16.6547 6.31066 16.3584 6.4272C16.1921 6.49263 16.0567 6.62501 16.0663 6.82017L16.0664 6.82097C16.0735 6.97142 16.1729 7.05595 16.2892 7.11271C16.4081 7.1708 16.5458 7.20305 16.6757 7.22422L16.6763 7.2243C17.2303 7.31552 17.8351 7.57094 17.9143 8.22957C17.9917 8.86836 17.4836 9.24221 16.9433 9.34598V9.48522C16.9433 9.6632 16.7988 9.80772 16.6208 9.80772C16.4428 9.80772 16.2983 9.6632 16.2983 9.48522V9.34122C15.842 9.24334 15.4506 8.94003 15.3293 8.45314C15.2864 8.2804 15.3917 8.10528 15.5644 8.06231C15.7371 8.0193 15.9123 8.12463 15.9553 8.29733C16.0326 8.60794 16.3488 8.73819 16.6526 8.73065H16.6533C16.8185 8.7269 17.0026 8.68655 17.1381 8.59314C17.2282 8.53098 17.2899 8.43806 17.274 8.30705L17.274 8.30669C17.2532 8.13346 17.1336 8.03966 16.9965 7.97741C16.8637 7.91703 16.7127 7.88397 16.572 7.86083C16.0287 7.77234 15.4525 7.49564 15.4221 6.85145C15.3979 6.35702 15.7009 5.99276 16.1223 5.82699C16.1791 5.80462 16.238 5.78611 16.2983 5.7716ZM10.32 10.0889C10.32 10.2669 10.1754 10.4114 9.99747 10.4114C9.81949 10.4114 9.67497 10.2669 9.67497 10.0889V7.8953C9.67497 7.71732 9.81949 7.5728 9.99747 7.5728C10.1754 7.5728 10.32 7.71732 10.32 7.8953V10.0889ZM11.1695 11.2891C11.0299 11.3996 10.8269 11.3759 10.7165 11.2363C10.6061 11.0967 10.6297 10.8937 10.7693 10.7833L12.6543 9.29188C12.7939 9.18142 12.9969 9.20509 13.1073 9.34469C13.2178 9.48425 13.1941 9.68726 13.0545 9.79768L11.1695 11.2891ZM9.22561 10.7833C9.36521 10.8937 9.38887 11.0967 9.27842 11.2363C9.168 11.3759 8.96499 11.3996 8.82543 11.2891L6.94042 9.79768C6.80082 9.68726 6.77715 9.48425 6.88761 9.34469C6.99803 9.20509 7.20104 9.18142 7.3406 9.29188L9.22561 10.7833Z" fill="#777777"/>
</svg>
