<svg width="19" height="19" viewBox="0 0 19 19" fill="none" xmlns="http://www.w3.org/2000/svg">
<g clip-path="url(#clip0_458_20850)">
<path d="M18.1664 11.0102L17.3759 10.3595C16.8345 9.91377 16.8355 9.08534 17.376 8.64051L18.1664 7.98983C18.7288 7.52675 18.8727 6.73268 18.5084 6.10163L16.9477 3.39837C16.5834 2.76736 15.8236 2.49497 15.1414 2.75051L14.1827 3.10969C13.526 3.35565 12.8091 2.94081 12.694 2.2502L12.5257 1.24031C12.4059 0.521646 11.7902 0 11.0616 0H7.9401C7.21145 0 6.59566 0.521646 6.47591 1.24034L6.30758 2.2502C6.19228 2.94203 5.47436 3.35524 4.8189 3.10973L3.86018 2.75051C3.178 2.49497 2.4183 2.76739 2.05392 3.39837L0.49321 6.1016C0.128908 6.73257 0.272743 7.52667 0.835284 7.9898L1.62568 8.64047C2.16718 9.08623 2.1661 9.91459 1.62568 10.3595L0.835247 11.0101C0.272743 11.4733 0.12887 12.2674 0.493173 12.8983L2.05392 15.6016C2.41826 16.2326 3.17781 16.505 3.86018 16.2495L4.81886 15.8903C5.47566 15.6442 6.19247 16.0593 6.30754 16.7498L6.47587 17.7596C6.59566 18.4784 7.21145 19 7.94006 19H11.0615C11.7901 19 12.4059 18.4784 12.5257 17.7597L12.694 16.7498C12.8092 16.0582 13.5271 15.6447 14.1827 15.8903L15.1414 16.2495C15.8238 16.5051 16.5834 16.2326 16.9477 15.6016L18.5085 12.8983C18.8727 12.2674 18.7288 11.4733 18.1664 11.0102ZM15.6622 14.8594L14.7035 14.5003C13.1709 13.9261 11.4983 14.8947 11.2298 16.5058L11.0616 17.5156H7.9401L7.77177 16.5058C7.50276 14.8916 5.82776 13.9273 4.29815 14.5003L3.33943 14.8594L1.77872 12.1562L2.56911 11.5055C3.83265 10.4653 3.83001 8.53252 2.56911 7.4945L1.77872 6.84382L3.33946 4.14055L4.29815 4.49973C5.83076 5.07382 7.50328 4.10526 7.77177 2.49423L7.94006 1.48438H11.0615L11.2298 2.49423C11.4988 4.10856 13.1739 5.07263 14.7034 4.49973L15.6622 4.14055L17.2232 6.84345C17.2232 6.84345 17.2231 6.84356 17.2228 6.84379L16.4325 7.49446C15.169 8.53456 15.1715 10.4674 16.4324 11.5055L17.2229 12.1561L15.6622 14.8594ZM9.50081 5.83853C7.48187 5.83853 5.83933 7.48106 5.83933 9.5C5.83933 11.5189 7.48187 13.1615 9.50081 13.1615C11.5197 13.1615 13.1623 11.5189 13.1623 9.5C13.1623 7.48106 11.5197 5.83853 9.50081 5.83853ZM9.50081 11.6771C8.30035 11.6771 7.32371 10.7005 7.32371 9.5C7.32371 8.29955 8.30035 7.3229 9.50081 7.3229C10.7013 7.3229 11.6779 8.29955 11.6779 9.5C11.6779 10.7005 10.7013 11.6771 9.50081 11.6771Z" fill="#777777"/>
</g>
<defs>
<clipPath id="clip0_458_20850">
<rect width="19" height="19" fill="white"/>
</clipPath>
</defs>
</svg>
