<svg width="18" height="17" viewBox="0 0 18 17" fill="none" xmlns="http://www.w3.org/2000/svg">
<path d="M15.3633 8.83782H13.6013C13.3615 8.83782 13.1293 8.86854 12.9084 8.92503C12.4725 8.12176 11.5826 7.56982 10.5572 7.56982H7.44275C6.41735 7.56982 5.52748 8.12176 5.09161 8.92503C4.87065 8.86854 4.63848 8.83782 4.39868 8.83782H2.63672C1.18283 8.83782 0 9.94673 0 11.3097V13.9504C0 14.7682 0.709699 15.4335 1.58203 15.4335H16.418C17.2903 15.4335 18 14.7682 18 13.9504V11.3097C18 9.94673 16.8172 8.83782 15.3633 8.83782ZM4.80604 10.0418V14.4448H1.58203C1.29125 14.4448 1.05469 14.223 1.05469 13.9504V11.3098C1.05469 10.492 1.76439 9.82663 2.63672 9.82663H4.39868C4.54184 9.82663 4.68046 9.84485 4.81243 9.87844C4.80864 9.93252 4.80604 9.9869 4.80604 10.0418ZM12.1393 14.4448H5.86072V10.0418C5.86072 9.22397 6.57042 8.55863 7.44275 8.55863H10.5572C11.4296 8.55863 12.1393 9.22397 12.1393 10.0418V14.4448ZM16.9453 13.9504C16.9453 14.223 16.7087 14.4448 16.418 14.4448H13.194V10.0418C13.194 9.98684 13.1914 9.93246 13.1876 9.8784C13.3195 9.84485 13.4582 9.82659 13.6013 9.82659H15.3633C16.2356 9.82659 16.9453 10.4919 16.9453 11.3097V13.9504Z" fill="#777777"/>
<path d="M3.5188 4.16943C2.22685 4.16943 1.17578 5.15481 1.17578 6.36602C1.17575 7.57723 2.22685 8.5626 3.5188 8.5626C4.81073 8.5626 5.86183 7.57723 5.86183 6.36602C5.86183 5.15481 4.81076 4.16943 3.5188 4.16943ZM3.51877 7.57383C2.80837 7.57383 2.23043 7.03202 2.23043 6.36602C2.23043 5.70002 2.80837 5.1582 3.51877 5.1582C4.22917 5.1582 4.80711 5.70002 4.80711 6.36602C4.80711 7.03202 4.22917 7.57383 3.51877 7.57383Z" fill="#777777"/>
<path d="M9.00134 1.44141C7.2753 1.44141 5.87109 2.75785 5.87109 4.37601C5.87109 5.99416 7.2753 7.31061 9.00134 7.31061C10.7274 7.31061 12.1316 5.99416 12.1316 4.37601C12.1316 2.75789 10.7274 1.44141 9.00134 1.44141ZM9.00134 6.32184C7.85686 6.32184 6.92578 5.44896 6.92578 4.37601C6.92578 3.30309 7.85686 2.43018 9.00134 2.43018C10.1458 2.43018 11.0769 3.30306 11.0769 4.37601C11.0769 5.44896 10.1458 6.32184 9.00134 6.32184Z" fill="#777777"/>
<path d="M14.4836 4.16943C13.1917 4.16943 12.1406 5.15481 12.1406 6.36602C12.1407 7.57723 13.1917 8.5626 14.4836 8.5626C15.7756 8.5626 16.8267 7.57723 16.8267 6.36602C16.8267 5.15481 15.7756 4.16943 14.4836 4.16943ZM14.4836 7.57383C13.7733 7.57383 13.1953 7.03202 13.1953 6.36602C13.1953 5.70002 13.7733 5.1582 14.4836 5.1582C15.1941 5.1582 15.772 5.70002 15.772 6.36602C15.772 7.03202 15.1941 7.57383 14.4836 7.57383Z" fill="#777777"/>
</svg>
