<svg width="20" height="20" viewBox="0 0 20 20" fill="none" xmlns="http://www.w3.org/2000/svg">
<path d="M19.7066 16.4735H19.2209V6.13241C19.2209 5.07535 18.3609 4.21533 17.3038 4.21533H15.1204C14.9583 4.21533 14.827 4.34666 14.827 4.50873C14.827 4.67081 14.9583 4.80213 15.1204 4.80213H17.3038C18.0373 4.80213 18.6341 5.39891 18.6341 6.13241V16.4735H12.0755C11.8753 16.4735 11.6885 16.5723 11.5759 16.7378L11.4879 16.8671C11.4062 16.9873 11.2706 17.059 11.1253 17.059H8.83555C8.69022 17.059 8.55467 16.9873 8.47291 16.8671L8.38497 16.7379C8.27238 16.5724 8.08562 16.4735 7.88536 16.4735H1.36588V6.13241C1.36588 5.39891 1.96266 4.80213 2.6962 4.80213H4.58586C4.74793 4.80213 4.87926 4.67081 4.87926 4.50873C4.87926 4.34666 4.74793 4.21533 4.58586 4.21533H2.6962C1.63913 4.21533 0.779077 5.07531 0.779077 6.13241V16.4735H0.293401C0.131326 16.4735 0 16.6049 0 16.7669V17.3778C0 18.4822 0.898511 19.3807 2.00291 19.3807H17.9971C19.1015 19.3807 20 18.4822 20 17.3778V16.7669C20 16.6049 19.8687 16.4735 19.7066 16.4735ZM19.4132 17.3778C19.4132 18.1586 18.7779 18.7939 17.9971 18.7939H2.00291C1.22207 18.7939 0.586802 18.1586 0.586802 17.3778V17.0603H7.88536C7.89115 17.0603 7.89655 17.0632 7.89984 17.068L7.98782 17.1973C8.17896 17.4781 8.49583 17.6458 8.83555 17.6458H11.1253C11.465 17.6458 11.7819 17.4781 11.973 17.1973L12.061 17.068L12.061 17.0679C12.0643 17.0632 12.0697 17.0603 12.0755 17.0603H19.4132V17.3778H19.4132Z" fill="#777777"/>
<path d="M2.03125 15.5148C2.03125 15.6768 2.16258 15.8082 2.32465 15.8082H17.676C17.8381 15.8082 17.9694 15.6768 17.9694 15.5148V6.13207C17.9694 5.76524 17.671 5.4668 17.3041 5.4668H15.1207C14.9586 5.4668 14.8273 5.59812 14.8273 5.7602C14.8273 5.92227 14.9586 6.0536 15.1207 6.0536H17.3041C17.3474 6.0536 17.3826 6.08877 17.3826 6.13207V15.2214H13.1265V14.0234C13.1265 13.3864 12.8784 12.7874 12.4279 12.3369L12.0459 11.9549C12.1814 11.7448 12.2864 11.5115 12.3528 11.26C12.3941 11.1033 12.3006 10.9428 12.144 10.9014C11.9872 10.8602 11.8268 10.9535 11.7854 11.1102C11.7174 11.3678 11.5964 11.6005 11.4363 11.7982C11.4351 11.7996 11.434 11.801 11.4328 11.8023C11.0901 12.223 10.5692 12.4838 10.0003 12.4838C8.98227 12.4838 8.15398 11.6556 8.15398 10.6375C8.15398 9.61944 8.98227 8.79115 10.0003 8.79115C10.7859 8.79115 11.4869 9.28973 11.7445 10.0318C11.7977 10.1849 11.9646 10.2659 12.1179 10.2128C12.271 10.1596 12.352 9.99245 12.2989 9.83937C11.9593 8.86141 11.0356 8.20434 10.0003 8.20434C8.65867 8.20434 7.56718 9.29583 7.56718 10.6375C7.56718 11.1224 7.71028 11.5741 7.95568 11.954L7.57273 12.3369C7.12222 12.7875 6.87416 13.3864 6.87416 14.0234V15.2214H2.61805V14.1465C2.61805 13.9844 2.48673 13.8531 2.32465 13.8531C2.16258 13.8531 2.03125 13.9844 2.03125 14.1465V15.5148ZM7.46096 14.0234C7.46096 13.5431 7.64804 13.0915 7.98772 12.7518L8.33272 12.4068C8.76859 12.8179 9.35536 13.0706 10.0003 13.0706C10.6372 13.0706 11.2283 12.8223 11.6688 12.4077L12.013 12.7518C12.3527 13.0915 12.5397 13.543 12.5397 14.0233V15.2213H7.46096V14.0234Z" fill="#777777"/>
<path d="M2.32465 13.1884C2.48673 13.1884 2.61805 13.0571 2.61805 12.895V6.13207C2.61805 6.08881 2.65322 6.0536 2.69649 6.0536H4.58618C4.74826 6.0536 4.87959 5.92227 4.87959 5.7602C4.87959 5.59812 4.74826 5.4668 4.58618 5.4668H2.69649C2.32966 5.4668 2.03125 5.76524 2.03125 6.13207V12.895C2.03125 13.057 2.16258 13.1884 2.32465 13.1884Z" fill="#777777"/>
<path d="M6.74032 7.58444H12.9634C13.6668 7.58444 14.2389 7.01227 14.2389 6.30897V1.89465C14.2389 1.19131 13.6667 0.619141 12.9634 0.619141H6.74032C6.03697 0.619141 5.46484 1.19135 5.46484 1.89465V2.50911C5.46484 2.67119 5.59617 2.80251 5.75824 2.80251C5.92032 2.80251 6.05165 2.67119 6.05165 2.50911V1.89465C6.05165 1.51487 6.36058 1.20594 6.74032 1.20594H12.9634C13.3432 1.20594 13.6521 1.51487 13.6521 1.89465V6.30897C13.6521 6.6887 13.3432 6.99764 12.9634 6.99764H6.74032C6.36058 6.99764 6.05165 6.6887 6.05165 6.30897V3.76052C6.05165 3.59845 5.92032 3.46712 5.75824 3.46712C5.59617 3.46712 5.46484 3.59845 5.46484 3.76052V6.30897C5.46484 7.01227 6.03701 7.58444 6.74032 7.58444Z" fill="#777777"/>
<path d="M9.06963 5.92044C9.20143 5.92044 9.33318 5.88523 9.45301 5.81485L11.2577 4.75454C11.4916 4.61707 11.6312 4.37308 11.6312 4.10178C11.6312 3.83048 11.4915 3.58649 11.2577 3.4491L9.45297 2.38879C9.21602 2.24956 8.93205 2.24792 8.69349 2.38449C8.4549 2.52102 8.3125 2.76665 8.3125 3.04151V5.16213C8.3125 5.43699 8.45494 5.68267 8.69349 5.81919C8.81148 5.88668 8.94057 5.92044 9.06963 5.92044ZM8.89926 3.04147C8.89926 2.95239 8.95915 2.9085 8.9849 2.89375C9.00043 2.88487 9.03137 2.87063 9.07041 2.87063C9.09604 2.87063 9.12518 2.87681 9.15569 2.89473L10.9604 3.95504C11.0362 3.99956 11.0443 4.07248 11.0443 4.10174C11.0443 4.13104 11.0362 4.20396 10.9603 4.24852L9.15573 5.30883C9.07886 5.35398 9.01072 5.32452 8.98497 5.30981C8.95919 5.29506 8.8993 5.25113 8.8993 5.16205V3.04147H8.89926Z" fill="#777777"/>
</svg>
